<svg width="637" height="810" viewBox="0 0 637 810" fill="none" xmlns="http://www.w3.org/2000/svg" xmlns:xlink="http://www.w3.org/1999/xlink">
<path d="M110 36V417.5C110 628.195 281.029 799 492 799V417.5C492 206.805 320.971 36 110 36Z" fill="url(#paint0_linear)"/>
<path d="M0 208.741L139.741 565.87C216.917 763.106 439.376 860.435 636.611 783.259L496.87 426.129C419.694 228.894 197.235 131.565 0 208.741Z" fill="url(#paint1_linear)"/>
<path d="M172 0V383.5C172 595.299 343.924 767 556 767V383.5C556 171.701 384.076 0 172 0Z" fill="url(#pattern0)"/>
<defs>
<pattern id="pattern0" patternContentUnits="objectBoundingBox" width="1" height="1">
<use xlink:href="#image0" transform="translate(-0.166499) scale(0.00210252 0.00105263)"/>
</pattern>
<linearGradient id="paint0_linear" x1="301" y1="36" x2="301" y2="799" gradientUnits="userSpaceOnUse">
<stop offset="0.0364583" stop-color="#FFEAA4" stop-opacity="0"/>
<stop offset="1" stop-color="#FFEAA4"/>
</linearGradient>
<linearGradient id="paint1_linear" x1="178.565" y1="138.87" x2="458.047" y2="853.129" gradientUnits="userSpaceOnUse">
<stop stop-color="#864EFD"/>
<stop offset="1" stop-color="#864EFD" stop-opacity="0"/>
</linearGradient>
</defs>

</svg>
